<svg width="16" height="16" viewBox="0 0 16 16" fill="none" xmlns="http://www.w3.org/2000/svg">
<g id="Group">
<path id="Vector" d="M6.00016 0.666656V1.99999H10.0002V0.666656H11.3335V1.99999H14.0002C14.177 1.99999 14.3465 2.07023 14.4716 2.19525C14.5966 2.32028 14.6668 2.48985 14.6668 2.66666V13.3333C14.6668 13.5101 14.5966 13.6797 14.4716 13.8047C14.3465 13.9298 14.177 14 14.0002 14H2.00016C1.82335 14 1.65378 13.9298 1.52876 13.8047C1.40373 13.6797 1.3335 13.5101 1.3335 13.3333V2.66666C1.3335 2.48985 1.40373 2.32028 1.52876 2.19525C1.65378 2.07023 1.82335 1.99999 2.00016 1.99999H4.66683V0.666656H6.00016ZM13.3335 6.66666H2.66683V12.6667H13.3335V6.66666ZM10.0242 7.42399L10.9668 8.36666L7.66683 11.6667L5.3095 9.30932L6.2535 8.36666L7.6675 9.78132L10.0248 7.42399H10.0242ZM4.66683 3.33332H2.66683V5.33332H13.3335V3.33332H11.3335V3.99999H10.0002V3.33332H6.00016V3.99999H4.66683V3.33332Z" fill="white"/>
</g>
</svg>
