<svg width="12" height="12" viewBox="0 0 12 12" fill="none" xmlns="http://www.w3.org/2000/svg">
<g id="fluent:hand-wave-24-filled">
<path id="Vector" d="M3.9701 1.33C3.94915 1.26652 3.91568 1.20788 3.87167 1.15756C3.82767 1.10723 3.77401 1.06625 3.71389 1.03702C3.65377 1.00779 3.58839 0.990918 3.52163 0.987396C3.45488 0.983874 3.38809 0.993775 3.32522 1.01651C3.26236 1.03925 3.20469 1.07437 3.15563 1.11978C3.10657 1.16519 3.06712 1.21998 3.03961 1.28091C3.01209 1.34184 2.99707 1.40766 2.99544 1.47449C2.99381 1.54132 3.00559 1.6078 3.0301 1.67L4.1551 4.7865C4.18494 4.87048 4.18061 4.96282 4.14304 5.04364C4.10548 5.12446 4.03768 5.1873 3.95424 5.21863C3.87081 5.24996 3.7784 5.24728 3.69693 5.21116C3.61545 5.17503 3.55141 5.10837 3.5186 5.0255L2.4661 2.319C2.4423 2.2578 2.40668 2.2019 2.36127 2.15447C2.31586 2.10704 2.26155 2.06902 2.20145 2.04258C2.14135 2.01613 2.07663 2.00179 2.01098 2.00036C1.94533 1.99893 1.88005 2.01045 1.81885 2.03425C1.69526 2.08232 1.59583 2.17752 1.54243 2.2989C1.51599 2.359 1.50164 2.42373 1.50021 2.48937C1.49878 2.55502 1.5103 2.6203 1.5341 2.6815L3.1136 6.7425C2.2626 6.6505 1.6551 6.8675 1.2886 7.0765C1.1895 7.1314 1.10943 7.21511 1.05898 7.31655C1.00853 7.41798 0.990088 7.53235 1.0061 7.6445C1.0356 7.853 1.1756 8.028 1.3696 8.113C2.0376 8.4055 3.5626 9.157 4.8686 10.403C5.3816 10.892 6.1296 11.1385 6.8501 10.923L8.2496 10.504C8.6646 10.3795 9.0116 10.061 9.1371 9.623C9.2871 9.0995 9.5001 8.213 9.5001 7.375C9.5001 6.8 9.2986 6.0825 9.1151 5.54C8.7511 4.4675 8.3441 3.4075 7.9726 2.3365C7.92917 2.21119 7.83774 2.10826 7.71842 2.05035C7.5991 1.99245 7.46167 1.98432 7.33635 2.02775C7.21104 2.07118 7.10811 2.16261 7.05021 2.28193C6.9923 2.40125 6.98417 2.53869 7.0276 2.664L7.5246 4.096C7.5555 4.18372 7.55029 4.28012 7.51011 4.364C7.46993 4.44787 7.39807 4.51235 7.31035 4.54325C7.22263 4.57415 7.12623 4.56893 7.04236 4.52875C6.95848 4.48857 6.894 4.41672 6.8631 4.329L5.9711 1.832C5.92473 1.70949 5.83213 1.61006 5.71321 1.55511C5.59429 1.50017 5.45856 1.49408 5.3352 1.53817C5.21184 1.58226 5.11072 1.673 5.05357 1.79087C4.99642 1.90875 4.98781 2.04435 5.0296 2.1685L5.8386 4.4335C5.86784 4.52067 5.86175 4.61582 5.82166 4.69855C5.78156 4.78129 5.71065 4.84502 5.62412 4.87609C5.53759 4.90715 5.44233 4.90308 5.35877 4.86474C5.27521 4.82641 5.20999 4.75686 5.1771 4.671L3.9701 1.33ZM9.3171 1.1615C9.34516 1.12101 9.38093 1.08644 9.42235 1.05978C9.46377 1.03311 9.51005 1.01487 9.55852 1.0061C9.607 0.997321 9.65673 0.998183 9.70487 1.00863C9.75302 1.01908 9.79863 1.03892 9.8391 1.067C10.2431 1.3475 10.5781 1.839 10.7881 2.3805C11.0001 2.9275 11.1031 3.5725 10.9946 4.19C10.9774 4.288 10.9219 4.37513 10.8404 4.43224C10.7589 4.48934 10.6581 4.51174 10.5601 4.4945C10.4621 4.47726 10.375 4.4218 10.3179 4.34031C10.2608 4.25883 10.2384 4.158 10.2556 4.06C10.3356 3.604 10.2621 3.0985 10.0886 2.6515C9.9136 2.1985 9.6541 1.8515 9.4111 1.683C9.32955 1.62626 9.27384 1.53947 9.25622 1.4417C9.2386 1.34392 9.26049 1.24315 9.3171 1.1615ZM9.1496 2.1195C9.08177 2.04663 8.98778 2.00369 8.88829 2.00013C8.7888 1.99657 8.69197 2.03267 8.6191 2.1005C8.54624 2.16833 8.5033 2.26233 8.49973 2.36182C8.49617 2.4613 8.53227 2.55813 8.6001 2.631C8.8091 2.855 8.9996 3.126 8.9996 3.625C8.9996 3.72446 9.03911 3.81984 9.10944 3.89017C9.17976 3.96049 9.27515 4 9.3746 4C9.47406 4 9.56944 3.96049 9.63977 3.89017C9.71009 3.81984 9.7496 3.72446 9.7496 3.625C9.7496 2.875 9.4386 2.43 9.1496 2.1195Z" fill="#FFC700"/>
</g>
</svg>
