<svg width="18" height="18" viewBox="0 0 18 18" fill="none" xmlns="http://www.w3.org/2000/svg">
<g id="tdesign:mode-dark">
<path id="Vector" d="M11.883 2.508L10.812 3.09375L11.883 3.6795L12.4688 4.7505L13.0545 3.6795L14.1255 3.09375L13.0545 2.508L12.4688 1.437L11.883 2.508ZM7.809 3.1185C6.82673 3.31781 5.91004 3.76 5.14264 4.40472C4.37523 5.04943 3.78156 5.87612 3.41583 6.80929C3.05009 7.74247 2.92396 8.75239 3.04894 9.74685C3.17392 10.7413 3.54603 11.6886 4.1313 12.5023C4.71656 13.3159 5.49634 13.97 6.39941 14.4048C7.30248 14.8396 8.30008 15.0412 9.30112 14.9912C10.3022 14.9413 11.2747 14.6413 12.13 14.1188C12.9854 13.5963 13.6961 12.8679 14.1975 12C12.4164 11.9861 10.713 11.2689 9.45843 10.0045C8.20389 8.74013 7.49995 7.03115 7.5 5.25C7.5 4.515 7.59825 3.79725 7.809 3.1185ZM1.5 9C1.5 4.85775 4.85775 1.5 9 1.5H10.3005L9.6495 2.625C9.21525 3.375 9 4.2675 9 5.25C8.99989 6.02521 9.17145 6.79083 9.50237 7.49186C9.83329 8.1929 10.3154 8.81194 10.9139 9.30455C11.5125 9.79715 12.2128 10.1511 12.9644 10.3409C13.716 10.5308 14.5003 10.5518 15.261 10.4025L16.5225 10.1573L16.1152 11.3767C15.1215 14.3527 12.3127 16.5 9 16.5C4.85775 16.5 1.5 13.1423 1.5 9ZM15.375 4.812L16.0605 6.0645L17.313 6.75L16.0605 7.4355L15.375 8.688L14.6895 7.4355L13.437 6.75L14.6895 6.0645L15.375 4.812Z" fill="#082141"/>
</g>
</svg>
