<svg xmlns="http://www.w3.org/2000/svg" width="207" height="138" viewBox="0 0 207 138" fill="none">
    <g opacity="0.2">
        <path d="M60.6881 33.744L29.7207 54.4593L60.2234 100.058L91.1909 79.3429L60.6881 33.744Z" fill="#F5F5F5"/>
        <path d="M75.1882 77.1862L74.8377 79.3611L59.4424 77.142L59.7929 74.9672L75.1882 77.1862Z" fill="#E0E0E0"/>
        <path d="M67.4353 69.4278L69.6433 69.7452L67.1951 84.9031L64.9844 84.583L67.4353 69.4278Z" fill="#E0E0E0"/>
        <path d="M53.2675 50.1628C53.2896 50.1932 50.1874 52.3101 46.3372 54.8824C42.487 57.4548 39.3489 59.5192 39.3268 59.4861C39.3047 59.453 42.4069 57.3388 46.2571 54.7638C50.1073 52.1887 53.2317 50.1297 53.2675 50.1628Z" fill="#E0E0E0"/>
        <path d="M64.6446 47.3037C64.6667 47.3369 59.5055 50.8255 53.1189 55.098C46.7322 59.3705 41.5269 62.8067 41.5103 62.7763C41.4937 62.7459 46.6439 59.2518 53.0388 54.9793C59.4337 50.7068 64.6225 47.2706 64.6446 47.3037Z" fill="#E0E0E0"/>
        <path d="M66.9273 50.715C66.9494 50.7481 61.7882 54.2395 55.4016 58.512C49.0149 62.7845 43.8096 66.2207 43.793 66.1875C43.7764 66.1544 48.9321 62.6658 55.3215 58.3905C61.7109 54.1153 66.9053 50.6819 66.9273 50.715Z" fill="#E0E0E0"/>
        <path d="M69.2105 54.1291C69.2326 54.1622 64.0714 57.6536 57.6848 61.9233C51.2981 66.193 46.0928 69.6347 46.0928 69.6016C46.0928 69.5685 51.2291 66.0771 57.6185 61.8046C64.0079 57.5321 69.1885 54.0959 69.2105 54.1291Z" fill="#E0E0E0"/>
        <path d="M71.4841 57.5432C71.5062 57.5763 66.345 61.065 59.9584 65.3374C53.5717 69.6099 48.3664 73.0461 48.3526 73.013C48.3388 72.9799 53.4972 69.4912 59.8921 65.2188C66.287 60.9463 71.4841 57.5101 71.4841 57.5432Z" fill="#E0E0E0"/>
        <path d="M164.239 64.2985L138.231 81.696L163.848 119.991L189.855 102.593L164.239 64.2985Z" fill="#F5F5F5"/>
        <path d="M176.42 100.79L176.125 102.617L163.194 100.754L163.492 98.9268L176.42 100.79Z" fill="#E0E0E0"/>
        <path d="M169.909 94.2733L171.763 94.541L169.707 107.27L167.85 107.002L169.909 94.2733Z" fill="#E0E0E0"/>
        <path d="M157.999 78.108C158.021 78.1412 155.418 79.9214 152.184 82.0824C148.949 84.2435 146.31 85.9713 146.288 85.9464C146.266 85.9216 148.872 84.1359 152.104 81.972C155.335 79.8082 157.977 78.0611 157.999 78.108Z" fill="#E0E0E0"/>
        <path d="M167.563 75.693C167.585 75.7261 163.254 78.6627 157.903 82.248C152.551 85.8332 148.171 88.7202 148.149 88.687C148.127 88.6539 152.457 85.7173 157.809 82.1293C163.161 78.5413 167.532 75.6599 167.563 75.693Z" fill="#E0E0E0"/>
        <path d="M169.481 78.5579C169.503 78.591 165.172 81.5276 159.821 85.1156C154.469 88.7036 150.089 91.585 150.067 91.5519C150.045 91.5188 154.362 88.596 159.727 85.008C165.092 81.42 169.464 78.5275 169.481 78.5579Z" fill="#E0E0E0"/>
        <path d="M171.397 81.42C171.419 81.4531 167.086 84.3898 161.737 87.9778C156.388 91.5658 152.005 94.4472 151.983 94.4141C151.961 94.381 156.291 91.4471 161.643 87.8564C166.995 84.2656 171.378 81.3924 171.397 81.42Z" fill="#E0E0E0"/>
        <path d="M173.328 84.2933C173.35 84.3264 169.02 87.2603 163.668 90.8483C158.316 94.4363 153.936 97.3177 153.914 97.2874C153.892 97.257 158.223 94.3176 163.574 90.7296C168.926 87.1416 173.292 84.2602 173.328 84.2933Z" fill="#E0E0E0"/>
        <path d="M123.094 35.4217L94.7163 20.244L72.3676 62.0292L100.745 77.207L123.094 35.4217Z" fill="#F5F5F5"/>
        <path d="M95.8882 64.1339L94.0886 64.7494L89.5181 52.1169L91.3203 51.4987L95.8882 64.1339Z" fill="#E0E0E0"/>
        <path d="M98.6485 55.0703L99.3054 56.8836L86.7584 61.1809L86.1016 59.3676L98.6485 55.0703Z" fill="#E0E0E0"/>
        <path d="M107.563 36.4321C107.541 36.4735 104.665 34.9775 101.135 33.0925C97.6047 31.2074 94.7647 29.6425 94.7867 29.6011C94.8088 29.5597 97.6875 31.0556 101.218 32.9407C104.748 34.8257 107.585 36.3879 107.563 36.4321Z" fill="#E0E0E0"/>
        <path d="M114.375 43.9476C114.353 43.989 109.589 41.4829 103.735 38.3531C97.8813 35.2232 93.1562 32.6509 93.1783 32.6095C93.2004 32.5681 97.9614 35.0714 103.815 38.204C109.669 41.3366 114.397 43.9062 114.375 43.9476Z" fill="#E0E0E0"/>
        <path d="M112.702 47.0747C112.68 47.1161 107.916 44.6128 102.062 41.4802C96.208 38.3476 91.4829 35.778 91.505 35.7366C91.527 35.6952 96.288 38.2013 102.142 41.3311C107.996 44.461 112.724 47.0333 112.702 47.0747Z" fill="#E0E0E0"/>
        <path d="M111.029 50.2014C111.007 50.2428 106.244 47.7395 100.39 44.6096C94.5356 41.4798 89.8105 38.9158 89.8326 38.8661C89.8547 38.8164 94.6157 41.328 100.47 44.4578C106.324 47.5877 111.051 50.16 111.029 50.2014Z" fill="#E0E0E0"/>
        <path d="M109.357 53.3289C109.335 53.3703 104.571 50.867 98.7173 47.7371C92.8633 44.6073 88.1354 42.0349 88.1603 41.9935C88.1851 41.9521 92.9433 44.4555 98.7973 47.5853C104.651 50.7152 109.379 53.2875 109.357 53.3289Z" fill="#E0E0E0"/>
        <path opacity="0.2" d="M109.504 0H108.792V12.1385H109.504V0Z" fill="black"/>
        <path d="M92.5239 26.8244H125.771C125.771 26.8244 122.702 12.1439 108.896 12.1439C96.617 12.1439 92.5239 26.8244 92.5239 26.8244Z" fill="#1A73E9"/>
        <path d="M109.503 0H108.791V12.1385H109.503V0Z" fill="#1A73E9"/>
        <path d="M183.173 121.393C183.173 121.432 147.5 121.465 103.503 121.465C59.5057 121.465 23.8271 121.44 23.8271 121.393C23.8271 121.346 59.4946 121.321 103.503 121.321C147.511 121.321 183.173 121.352 183.173 121.393Z" fill="#263238"/>
        <path d="M32.6468 104.107C33.1134 104.141 33.5685 104.268 33.9848 104.482C34.4012 104.695 34.7702 104.99 35.0701 105.349C35.6662 106.072 36.0883 106.922 36.3038 107.833C36.7702 109.578 36.4832 111.639 35.9864 113.375C34.0985 112.699 32.9311 110.684 32.3984 109.624C31.5704 107.952 31.0763 104.419 32.6385 104.104" fill="#1A73E9"/>
        <path d="M38.7049 115.492C38.4215 115.052 38.2594 114.546 38.2351 114.023C38.2109 113.5 38.3254 112.981 38.5669 112.517C38.8161 112.057 39.1543 111.652 39.5618 111.324C39.9694 110.997 40.4381 110.754 40.9405 110.61C41.4015 110.466 41.9369 110.408 42.3371 110.676C42.5175 110.812 42.658 110.995 42.7439 111.204C42.8299 111.413 42.8581 111.642 42.8256 111.865C42.7532 112.314 42.5627 112.735 42.2736 113.085C41.3545 114.33 40.2395 115.365 38.6856 115.492" fill="#1A73E9"/>
        <path d="M38.9151 121.324C38.8741 121.207 38.8455 121.086 38.8295 120.962C38.7798 120.703 38.7136 120.369 38.6336 119.969C38.3858 118.873 38.3168 117.744 38.4293 116.626C38.5595 115.503 38.9873 114.435 39.6686 113.533C39.8767 113.263 40.1167 113.019 40.3834 112.807C40.4559 112.749 40.5314 112.696 40.6097 112.647C40.6346 112.626 40.6626 112.609 40.6925 112.597C40.3434 112.895 40.0245 113.227 39.7403 113.588C39.095 114.491 38.6886 115.543 38.559 116.646C38.3824 117.932 38.6004 119.11 38.7274 119.958C38.7936 120.38 38.8488 120.722 38.8792 120.96C38.9009 121.08 38.9129 121.202 38.9151 121.324Z" fill="#263238"/>
        <path d="M33.2544 106.765C33.2859 106.808 33.3119 106.856 33.3317 106.906C33.3814 107.016 33.4476 107.154 33.5249 107.328C33.6932 107.695 33.9278 108.228 34.2121 108.887C34.7807 110.209 35.5424 112.048 36.3373 114.095C37.1322 116.143 37.8084 118.012 38.2693 119.373C38.5067 120.052 38.6916 120.604 38.8213 120.987C38.8793 121.169 38.9234 121.316 38.9593 121.429C38.979 121.479 38.9929 121.532 39.0007 121.586C38.9727 121.539 38.9505 121.489 38.9345 121.437C38.8931 121.327 38.8406 121.183 38.7716 121.004L38.1893 119.403C37.6952 118.053 37.0052 116.188 36.2131 114.142C35.421 112.097 34.6703 110.254 34.1238 108.923C33.8478 108.269 33.6353 107.736 33.478 107.347C33.4062 107.171 33.3482 107.03 33.3041 106.917C33.2833 106.868 33.2667 106.817 33.2544 106.765Z" fill="#263238"/>
        <path d="M36.6712 117.465C36.1032 116.52 35.3184 115.723 34.3816 115.141C33.4448 114.559 32.3829 114.208 31.2836 114.117C30.7316 114.079 30.0527 114.173 29.8043 114.669C29.5559 115.166 29.8871 115.773 30.268 116.176C31.0772 117.023 32.119 117.611 33.2619 117.866C34.4049 118.122 35.5978 118.033 36.6905 117.612" fill="#1A73E9"/>
        <path d="M32.1338 115.614C32.2508 115.608 32.3681 115.612 32.4843 115.627C32.6204 115.635 32.7559 115.651 32.89 115.674C33.0474 115.705 33.2323 115.721 33.4255 115.777C33.6414 115.822 33.8544 115.881 34.063 115.953C34.3048 116.031 34.5417 116.123 34.7724 116.229C35.303 116.467 35.8048 116.764 36.2683 117.115C36.7264 117.474 37.1413 117.886 37.5048 118.341C37.6617 118.539 37.8064 118.746 37.9381 118.962C38.0571 119.148 38.1658 119.34 38.2638 119.538C38.3467 119.7 38.4204 119.866 38.4846 120.035C38.5399 120.161 38.5869 120.29 38.6253 120.422C38.6662 120.532 38.6967 120.645 38.7164 120.761C38.686 120.761 38.5536 120.286 38.181 119.58C38.0795 119.39 37.968 119.206 37.847 119.028C37.7125 118.819 37.5669 118.617 37.4109 118.423C36.689 117.531 35.7684 116.821 34.7227 116.348C34.4826 116.243 34.2535 116.144 34.0299 116.072C33.8247 115.997 33.6155 115.934 33.4034 115.881C32.6306 115.669 32.131 115.644 32.1338 115.614Z" fill="#263238"/>
        <path d="M82.5244 64.7334L72.754 114.91L71.4844 121.479L136.62 121.164C139.546 121.151 142.14 118.553 143.076 114.695L154.629 67.325C155.344 64.3966 153.777 61.3496 151.558 61.3524L85.6156 61.4214C84.1804 61.4186 82.8942 62.7765 82.5244 64.7334Z" fill="#1A73E9"/>
        <g opacity="0.5">
            <path d="M82.5244 64.7329L72.754 114.91L71.4844 121.478L136.62 121.164C139.546 121.15 142.14 118.553 143.076 114.694L154.629 67.3245C155.344 64.3961 153.777 61.3491 151.558 61.3519L85.6156 61.4209C84.1804 61.4181 82.8942 62.776 82.5244 64.7329Z" fill="black"/>
        </g>
        <path d="M130.38 111.504L123.48 55.915C123.204 53.638 121.386 51.9378 119.241 51.9461L104.116 51.993C103.554 51.9993 102.999 52.1201 102.485 52.3478C101.972 52.5756 101.509 52.9056 101.127 53.3178L93.9512 60.9547L51.8888 61.181C49.3192 61.1948 47.3431 63.6292 47.6826 66.3616L54.0885 117.739C54.3645 120.013 56.1834 121.711 58.3224 121.708L131.642 121.562C139.806 121.73 140.587 119.32 140.587 119.32C131.214 121.393 130.38 111.518 130.38 111.504Z" fill="#1A73E9"/>
        <g opacity="0.5">
            <path d="M98.764 100.387L96.2911 103.042L77.2471 85.9078L79.72 83.2527L98.764 100.387Z" fill="white"/>
            <path d="M95.2564 82.665L97.9888 85.1242L80.7581 103.63L78.0229 101.171L95.2564 82.665Z" fill="white"/>
        </g>
        <path d="M140.848 28.6434C140.758 28.6057 140.681 28.5434 140.626 28.4637C140.571 28.3841 140.54 28.2903 140.536 28.1935L140.425 25.6322C140.421 25.5526 140.436 25.4732 140.468 25.4003C140.5 25.3274 140.549 25.2629 140.61 25.212C140.672 25.1611 140.744 25.1252 140.821 25.1071C140.899 25.0891 140.98 25.0893 141.057 25.1078C141.271 25.1539 141.492 25.1559 141.706 25.1137C141.921 25.0714 142.125 24.9858 142.305 24.8622C142.471 24.7571 142.614 24.6191 142.724 24.4568C142.835 24.2944 142.911 24.1112 142.948 23.9182C142.973 23.7229 142.958 23.5245 142.905 23.3349C142.852 23.1452 142.762 22.9682 142.639 22.8142C142.509 22.6391 142.347 22.4911 142.16 22.3789C141.974 22.2666 141.767 22.1923 141.551 22.1601C141.117 22.136 140.687 22.2591 140.332 22.5095C139.976 22.76 139.715 23.1231 139.592 23.5401C139.551 23.6665 139.462 23.7721 139.345 23.8349C139.228 23.8977 139.091 23.9129 138.963 23.8773C138.835 23.8417 138.725 23.7581 138.658 23.6439C138.59 23.5297 138.568 23.3936 138.598 23.2641C138.786 22.6082 139.194 22.0369 139.753 21.6464C140.313 21.2558 140.99 21.0698 141.67 21.1196C142.024 21.1668 142.365 21.2847 142.673 21.4663C142.981 21.6479 143.249 21.8894 143.461 22.1767C143.668 22.4429 143.819 22.7479 143.906 23.0735C143.993 23.3992 144.013 23.739 143.966 24.0728C143.904 24.4061 143.773 24.723 143.583 25.004C143.394 25.285 143.148 25.5242 142.862 25.7067C142.448 25.9855 141.965 26.1432 141.466 26.1621L141.551 28.1383C141.555 28.2251 141.536 28.3113 141.497 28.389C141.458 28.4666 141.4 28.5331 141.328 28.5824C141.257 28.6317 141.174 28.6621 141.087 28.6708C141.001 28.6795 140.914 28.6663 140.834 28.6323L140.848 28.6434Z" fill="#1A73E9"/>
        <path d="M141.605 29.6923C141.611 29.7757 141.592 29.8589 141.55 29.9314C141.509 30.0039 141.447 30.0625 141.372 30.0998C141.297 30.137 141.213 30.1512 141.13 30.1406C141.047 30.13 140.969 30.095 140.906 30.0401C140.843 29.9852 140.798 29.9129 140.776 29.8323C140.754 29.7516 140.757 29.6663 140.783 29.5871C140.81 29.5079 140.859 29.4384 140.926 29.3874C140.992 29.3363 141.072 29.3061 141.155 29.3004C141.21 29.2963 141.266 29.3032 141.318 29.3207C141.371 29.3382 141.42 29.366 141.462 29.4025C141.503 29.4389 141.538 29.4833 141.562 29.5331C141.587 29.5828 141.601 29.637 141.605 29.6923Z" fill="#1A73E9"/>
        <path d="M131.981 25.0303C131.992 24.9757 132.001 24.9204 132.005 24.8647C132.005 24.7433 132.036 24.5887 132.058 24.3707C132.085 24.103 132.13 23.8374 132.193 23.5758C132.229 23.4213 132.248 23.2501 132.303 23.0763C132.359 22.9024 132.414 22.7147 132.475 22.5243C132.794 21.5807 133.26 20.6931 133.855 19.894C134.634 18.8592 135.622 17.9997 136.755 17.3713C137.4 17.0077 138.087 16.7241 138.8 16.5268C139.571 16.3227 140.364 16.2188 141.16 16.2177C141.58 16.2109 142 16.233 142.416 16.2839C142.629 16.306 142.838 16.3612 143.051 16.3971C143.266 16.4339 143.478 16.4855 143.686 16.5516C144.556 16.7947 145.383 17.1698 146.139 17.6639C147.821 18.7544 149.102 20.3627 149.788 22.2455C150.158 23.2541 150.345 24.3205 150.34 25.3947C150.351 26.5012 150.156 27.6002 149.763 28.6349L149.639 28.9495L149.622 28.9909L149.639 29.0323C150.332 30.6249 151.019 32.1898 151.668 33.705L151.784 33.5725L147.644 31.9855L147.594 31.9662L147.552 32.0049C146.457 33.066 145.117 33.8397 143.65 34.257C142.397 34.602 141.084 34.6774 139.8 34.478C138.515 34.2787 137.288 33.8092 136.198 33.1006C135.305 32.5152 134.519 31.7826 133.871 30.934C132.933 29.6952 132.325 28.2383 132.105 26.7001C132.072 26.4241 132.044 26.1923 132.019 25.9825C131.994 25.7728 132.019 25.6017 132.005 25.4554C131.992 25.3091 132.005 25.2125 132.005 25.1325C132.019 25.1304 132.032 25.1232 132.04 25.1123C132.049 25.1014 132.053 25.0876 132.052 25.0737C132.051 25.0598 132.045 25.0469 132.035 25.0374C132.024 25.0279 132.011 25.0227 131.997 25.0227C131.983 25.0227 131.97 25.0279 131.96 25.0374C131.949 25.0469 131.943 25.0598 131.942 25.0737C131.941 25.0876 131.945 25.1014 131.954 25.1123C131.963 25.1232 131.975 25.1304 131.989 25.1325C131.989 25.2125 131.989 25.3201 131.989 25.4554C131.989 25.5906 131.989 25.7783 131.989 25.9881C131.989 26.1978 132.036 26.4379 132.063 26.7112C132.154 27.375 132.312 28.0279 132.535 28.6597C132.851 29.4941 133.276 30.283 133.799 31.0057C134.449 31.8695 135.242 32.6162 136.143 33.2137C137.246 33.9401 138.491 34.4235 139.795 34.6319C141.099 34.8403 142.433 34.769 143.708 34.4226C145.192 34.001 146.55 33.2199 147.66 32.1484L147.569 32.1677L151.709 33.763L151.916 33.843L151.825 33.6305C151.168 32.1153 150.489 30.5531 149.799 28.9578V29.0379L149.926 28.7149C150.329 27.6577 150.529 26.5342 150.517 25.4029C150.525 24.3059 150.338 23.2162 149.965 22.1848C149.263 20.2644 147.954 18.6256 146.236 17.5176C145.461 17.012 144.611 16.6303 143.719 16.386C143.508 16.3192 143.292 16.2684 143.073 16.2342C142.858 16.1956 142.645 16.1404 142.43 16.1211C142.008 16.0687 141.583 16.0447 141.158 16.0493C140.348 16.0527 139.543 16.1622 138.762 16.375C138.039 16.5803 137.343 16.8712 136.689 17.2416C135.545 17.8854 134.55 18.765 133.772 19.8222C133.179 20.6346 132.719 21.5365 132.411 22.4939C132.353 22.6926 132.298 22.8831 132.248 23.0459C132.204 23.2123 132.169 23.3809 132.143 23.551C132.084 23.8144 132.045 24.082 132.027 24.3514C132.011 24.5639 132 24.7267 131.992 24.8482C131.98 24.9082 131.976 24.9694 131.981 25.0303Z" fill="#263238"/>
    </g>
</svg>
